<?xml version="1.0" encoding="utf-8"?>
<!-- Generator: Adobe Illustrator 25.2.3, SVG Export Plug-In . SVG Version: 6.00 Build 0)  -->
<svg version="1.1" id="Capa_1" xmlns="http://www.w3.org/2000/svg" xmlns:xlink="http://www.w3.org/1999/xlink" x="0px" y="0px"
	 viewBox="0 0 512 512" style="enable-background:new 0 0 512 512;" xml:space="preserve">
<style type="text/css">
	.st0{fill:#63B1FF;}
</style>
<g>
	<path class="st0" d="M347.2,347.2l-12.9,36.2l93.2,44.1l-44.1-93.2L347.2,347.2z"/>
	<path class="st0" d="M383.4,177.7l44.1-93.2l-93.2,44.1l12.9,36.2L383.4,177.7z"/>
	<path class="st0" d="M164.8,164.8l12.9-36.2L84.5,84.5l44.1,93.2L164.8,164.8z"/>
	<path class="st0" d="M128.6,334.3l-44.1,93.2l93.2-44.1l-12.9-36.2L128.6,334.3z"/>
	<path class="st0" d="M512,256c-19.4-6.9-185.4-66.3-188.5-67.5C315.7,166.9,256.7,2,256,0c-7,19.7-66.4,185.6-67.5,188.5
		c-8,2.8-167.1,59.8-188.5,67.5c2.5,0.9,184.6,66,188.5,67.5c12,33.4,60.1,167.9,67.5,188.5c7.3-20.3,66.8-186.7,67.5-188.5
		C331.4,320.6,490.6,263.7,512,256L512,256z"/>
</g>
</svg>
